<?xml version="1.0" encoding="UTF-8"?>
<svg version="1.1" xmlns="http://www.w3.org/2000/svg" width="250" height="137">
<path d="M0 0 C1.45962158 0.00737183 1.45962158 0.00737183 2.94873047 0.01489258 C9.76326854 0.12635332 15.75364494 0.76600335 22.125 3.3125 C23.10339844 3.66441406 24.08179688 4.01632813 25.08984375 4.37890625 C37.19579781 9.00451039 47.3567977 16.56147816 55.125 27 C57.69399902 29.97040512 60.66519941 31.75265512 64.00390625 33.78515625 C66.34125952 35.46822279 67.69330839 36.81042697 69.125 39.3125 C69.453125 42.00390625 69.453125 42.00390625 69.375 44.875 C69.35953125 45.82503906 69.3440625 46.77507813 69.328125 47.75390625 C69.125 50.3125 69.125 50.3125 68.125 53.3125 C67.89754618 56.62109291 67.93984651 59.93438358 67.9375 63.25 C67.92525391 64.15685547 67.91300781 65.06371094 67.90039062 65.99804688 C67.89845703 66.87396484 67.89652344 67.74988281 67.89453125 68.65234375 C67.89042236 69.45019287 67.88631348 70.24804199 67.88208008 71.07006836 C68.1583901 73.62072923 68.73507139 75.16017772 70.125 77.3125 C72.56771922 78.91571667 74.9305233 80.32263183 77.5 81.6875 C78.58692139 82.27241211 78.58692139 82.27241211 79.69580078 82.86914062 C81.16084911 83.65490103 82.62812009 84.43653233 84.09765625 85.21386719 C85.83430509 86.15497024 87.53140952 87.16842095 89.21875 88.1953125 C97.32883019 92.9110052 104.92761224 93.18409399 114.09545898 93.08886719 C116.125 93.3125 116.125 93.3125 121.125 95.3125 C121.125 103.2325 121.125 111.1525 121.125 119.3125 C112.125 123.8125 112.125 123.8125 108.125 124.3125 C107.795 125.9625 107.465 127.6125 107.125 129.3125 C106.795 129.3125 106.465 129.3125 106.125 129.3125 C105.135 125.8475 105.135 125.8475 104.125 122.3125 C100.0914776 121.19766471 100.0914776 121.19766471 96.25 122.3125 C94.57209269 125.29544634 94.9353604 127.96220039 95.125 131.3125 C94.465 131.3125 93.805 131.3125 93.125 131.3125 C93.0940625 129.95125 93.0940625 129.95125 93.0625 128.5625 C92.39652479 125.05010257 92.39652479 125.05010257 89.125 123 C86.38851741 121.63727581 84.16130493 121.1157679 81.125 120.9375 C73.44095745 120.40938711 66.17512937 116.5074596 59.19213867 113.47241211 C49.29496794 109.18660096 41.1003162 109.5921369 31.125 113.3125 C28.37675404 114.48686061 25.66798266 115.72586666 22.9609375 116.9921875 C-1.35428994 128.3125 -1.35428994 128.3125 -7.875 128.3125 C-7.875 126.3325 -7.875 124.3525 -7.875 122.3125 C-5.235 122.3125 -2.595 122.3125 0.125 122.3125 C0.125 121.6525 0.125 120.9925 0.125 120.3125 C-1.8240625 120.5290625 -1.8240625 120.5290625 -3.8125 120.75 C-4.54339844 120.83121094 -5.27429688 120.91242188 -6.02734375 120.99609375 C-7.88640229 121.13136614 -7.88640229 121.13136614 -8.875 122.3125 C-9.24260731 124.64067964 -9.57741581 126.9743385 -9.875 129.3125 C-19.46105931 132.5123385 -27.84864382 133.91185175 -38.015625 133.84375 C-39.30386169 133.8475769 -40.59209839 133.85140381 -41.91937256 133.85534668 C-44.61864887 133.86117775 -47.31738861 133.85288451 -50.01660156 133.83398438 C-53.44815481 133.81110463 -56.87846219 133.82441357 -60.30997086 133.84827423 C-63.62861841 133.86631875 -66.94694225 133.85363803 -70.265625 133.84375 C-71.48252014 133.85184692 -72.69941528 133.85994385 -73.95318604 133.86828613 C-81.40403422 133.78696967 -87.19317337 132.66045285 -93.875 129.3125 C-93.875 128.6525 -93.875 127.9925 -93.875 127.3125 C-94.44734375 127.20808594 -95.0196875 127.10367188 -95.609375 126.99609375 C-105.91169203 123.88763603 -113.28423238 112.41190671 -118.25 103.5625 C-124.97800399 90.56231885 -125.38703696 77.01236277 -121.21484375 63.11328125 C-119.67725132 58.70215542 -117.74040451 55.00979614 -114.875 51.3125 C-114.215 51.3125 -113.555 51.3125 -112.875 51.3125 C-112.875 50.6525 -112.875 49.9925 -112.875 49.3125 C-112.215 49.3125 -111.555 49.3125 -110.875 49.3125 C-110.875 48.6525 -110.875 47.9925 -110.875 47.3125 C-110.215 47.3125 -109.555 47.3125 -108.875 47.3125 C-108.875 46.6525 -108.875 45.9925 -108.875 45.3125 C-100.51578876 39.04745442 -90.4102007 34.9914828 -79.875 35.3125 C-76.22662968 35.9751143 -72.66286895 36.7864243 -69.07421875 37.71875 C-65.79546506 38.32726106 -63.96999824 38.53462751 -60.875 37.3125 C-59.06449692 35.14367068 -59.06449692 35.14367068 -57.625 32.375 C-48.04442321 16.43490242 -33.76431997 5.69575239 -15.625 1.16796875 C-10.41981401 0.08488501 -5.30236584 -0.03167647 0 0 Z " fill="#E1E2E4" transform="translate(128.875,3.6875)"/>
<path d="M0 0 C1.45962158 0.00737183 1.45962158 0.00737183 2.94873047 0.01489258 C9.76326854 0.12635332 15.75364494 0.76600335 22.125 3.3125 C23.10339844 3.66441406 24.08179688 4.01632813 25.08984375 4.37890625 C37.19579781 9.00451039 47.3567977 16.56147816 55.125 27 C57.69399902 29.97040512 60.66519941 31.75265512 64.00390625 33.78515625 C66.34125952 35.46822279 67.69330839 36.81042697 69.125 39.3125 C69.453125 42.00390625 69.453125 42.00390625 69.375 44.875 C69.35953125 45.82503906 69.3440625 46.77507813 69.328125 47.75390625 C69.125 50.3125 69.125 50.3125 68.125 53.3125 C67.89754618 56.62109291 67.93984651 59.93438358 67.9375 63.25 C67.92525391 64.15685547 67.91300781 65.06371094 67.90039062 65.99804688 C67.89845703 66.87396484 67.89652344 67.74988281 67.89453125 68.65234375 C67.89042236 69.45019287 67.88631348 70.24804199 67.88208008 71.07006836 C68.1583901 73.62072923 68.73507139 75.16017772 70.125 77.3125 C72.56771922 78.91571667 74.9305233 80.32263183 77.5 81.6875 C78.58692139 82.27241211 78.58692139 82.27241211 79.69580078 82.86914062 C81.16084911 83.65490103 82.62812009 84.43653233 84.09765625 85.21386719 C85.83430509 86.15497024 87.53140952 87.16842095 89.21875 88.1953125 C97.32883019 92.9110052 104.92761224 93.18409399 114.09545898 93.08886719 C116.125 93.3125 116.125 93.3125 121.125 95.3125 C121.125 103.2325 121.125 111.1525 121.125 119.3125 C112.125 123.8125 112.125 123.8125 108.125 124.3125 C107.795 125.9625 107.465 127.6125 107.125 129.3125 C106.795 129.3125 106.465 129.3125 106.125 129.3125 C105.135 125.8475 105.135 125.8475 104.125 122.3125 C100.0914776 121.19766471 100.0914776 121.19766471 96.25 122.3125 C94.57209269 125.29544634 94.9353604 127.96220039 95.125 131.3125 C94.465 131.3125 93.805 131.3125 93.125 131.3125 C93.0940625 129.95125 93.0940625 129.95125 93.0625 128.5625 C92.39652479 125.05010257 92.39652479 125.05010257 89.125 123 C86.38851741 121.63727581 84.16130493 121.1157679 81.125 120.9375 C73.44095745 120.40938711 66.17512937 116.5074596 59.19213867 113.47241211 C49.29496794 109.18660096 41.1003162 109.5921369 31.125 113.3125 C28.37675404 114.48686061 25.66798266 115.72586666 22.9609375 116.9921875 C-1.35428994 128.3125 -1.35428994 128.3125 -7.875 128.3125 C-7.875 126.3325 -7.875 124.3525 -7.875 122.3125 C-5.235 122.3125 -2.595 122.3125 0.125 122.3125 C0.125 121.6525 0.125 120.9925 0.125 120.3125 C-1.8240625 120.5290625 -1.8240625 120.5290625 -3.8125 120.75 C-4.54339844 120.83121094 -5.27429688 120.91242188 -6.02734375 120.99609375 C-7.88640229 121.13136614 -7.88640229 121.13136614 -8.875 122.3125 C-9.24260731 124.64067964 -9.57741581 126.9743385 -9.875 129.3125 C-19.46105931 132.5123385 -27.84864382 133.91185175 -38.015625 133.84375 C-39.30386169 133.8475769 -40.59209839 133.85140381 -41.91937256 133.85534668 C-44.61864887 133.86117775 -47.31738861 133.85288451 -50.01660156 133.83398438 C-53.44815481 133.81110463 -56.87846219 133.82441357 -60.30997086 133.84827423 C-63.62861841 133.86631875 -66.94694225 133.85363803 -70.265625 133.84375 C-71.48252014 133.85184692 -72.69941528 133.85994385 -73.95318604 133.86828613 C-81.40403422 133.78696967 -87.19317337 132.66045285 -93.875 129.3125 C-93.875 128.6525 -93.875 127.9925 -93.875 127.3125 C-94.44734375 127.20808594 -95.0196875 127.10367188 -95.609375 126.99609375 C-105.91169203 123.88763603 -113.28423238 112.41190671 -118.25 103.5625 C-124.97800399 90.56231885 -125.38703696 77.01236277 -121.21484375 63.11328125 C-119.67725132 58.70215542 -117.74040451 55.00979614 -114.875 51.3125 C-114.215 51.3125 -113.555 51.3125 -112.875 51.3125 C-112.875 50.6525 -112.875 49.9925 -112.875 49.3125 C-112.215 49.3125 -111.555 49.3125 -110.875 49.3125 C-110.875 48.6525 -110.875 47.9925 -110.875 47.3125 C-110.215 47.3125 -109.555 47.3125 -108.875 47.3125 C-108.875 46.6525 -108.875 45.9925 -108.875 45.3125 C-100.51578876 39.04745442 -90.4102007 34.9914828 -79.875 35.3125 C-76.22662968 35.9751143 -72.66286895 36.7864243 -69.07421875 37.71875 C-65.79546506 38.32726106 -63.96999824 38.53462751 -60.875 37.3125 C-59.06449692 35.14367068 -59.06449692 35.14367068 -57.625 32.375 C-48.04442321 16.43490242 -33.76431997 5.69575239 -15.625 1.16796875 C-10.41981401 0.08488501 -5.30236584 -0.03167647 0 0 Z M-48.25 25.44140625 C-57.74251999 36.37149537 -61.05187429 47.897176 -61.0625 62.125 C-61.08086914 63.40213867 -61.08086914 63.40213867 -61.09960938 64.70507812 C-61.11292682 70.53368017 -60.31991842 75.66418253 -58.875 81.3125 C-75.80377856 77.91105912 -75.80377856 77.91105912 -80.80078125 71.4765625 C-82.92898855 67.18919216 -82.78014872 62.93089661 -81.875 58.3125 C-80.125 55.1875 -80.125 55.1875 -76.875 53.3125 C-72.87260908 52.63068828 -68.93107476 52.38365921 -64.875 52.3125 C-70.33903896 44.82474291 -76.98160188 42.79473302 -85.875 41.3125 C-94.76390266 40.71548415 -102.33682568 44.38781962 -108.984375 50.13671875 C-115.36762566 56.86095502 -118.06266626 64.03111701 -118.375 73.25 C-117.92880408 86.96308801 -111.25462883 97.79552024 -101.5703125 107.16796875 C-90.71258612 115.80694235 -78.6329824 118.68831692 -65 118.625 C-63.79778809 118.62153564 -62.59557617 118.61807129 -61.35693359 118.61450195 C-51.87568993 118.49934257 -43.08859492 117.44407763 -33.875 115.3125 C-32.83730469 115.11914062 -31.79960938 114.92578125 -30.73046875 114.7265625 C-17.37969427 112.08725663 -4.28411401 106.82747101 8.08398438 101.22094727 C10.93215125 99.95324045 13.83237527 98.84682418 16.75 97.75 C20.24617319 96.42569197 23.71263104 95.08987038 27.125 93.5625 C38.50450325 88.82104031 49.15734917 91.84961393 60.125 96.3125 C66.08510613 98.90257081 71.96560171 101.7117382 77.76171875 104.6484375 C86.79890066 108.86080989 96.70413706 108.72577849 106.06738281 105.56420898 C109.49490416 104.30103761 112.85718064 102.94640968 116.125 101.3125 C115.795 100.3225 115.465 99.3325 115.125 98.3125 C113.97 98.4775 112.815 98.6425 111.625 98.8125 C107.0887039 99.30213196 102.55979718 99.49079181 98 99.5625 C97.33162109 99.58376953 96.66324219 99.60503906 95.97460938 99.62695312 C88.41966483 99.67905619 82.8547439 96.28307605 76.5 92.5625 C75.27527899 91.85583516 74.05000518 91.15012763 72.82421875 90.4453125 C71.00275907 89.39533391 69.18143276 88.34516255 67.36181641 87.29199219 C60.66515199 83.44193377 54.79537424 80.48255709 47.125 79.3125 C47.3415625 78.65765625 47.558125 78.0028125 47.78125 77.328125 C50.67694118 67.83669281 51.00617226 59.67992301 48.5625 50.0625 C47.97265625 47.0859375 47.97265625 47.0859375 48.125 44.3125 C50.19132391 41.59478796 52.31570338 39.81945861 55.0859375 37.8359375 C55.75882813 37.33320312 56.43171875 36.83046875 57.125 36.3125 C57.125 35.6525 57.125 34.9925 57.125 34.3125 C52.26536821 34.91995397 48.3844482 37.04008967 44.125 39.3125 C43.96257812 38.45785156 43.96257812 38.45785156 43.796875 37.5859375 C41.87294029 31.07587934 36.52364998 25.35801027 32.125 20.3125 C32.785 19.3225 33.445 18.3325 34.125 17.3125 C33.25617188 17.38082031 32.38734375 17.44914062 31.4921875 17.51953125 C27.49515321 17.27377392 25.60036839 16.14619089 22.25 14 C-1.84023328 -0.75824935 -29.34966445 5.7973075 -48.25 25.44140625 Z " fill="#010101" transform="translate(128.875,3.6875)"/>
<path d="M0 0 C2.75753166 1.37123159 4.67194058 2.11030679 7.57421875 2.77734375 C8.56421875 3.10734375 9.55421875 3.43734375 10.57421875 3.77734375 C9.91421875 4.76734375 9.25421875 5.75734375 8.57421875 6.77734375 C9.02152344 7.18984375 9.46882813 7.60234375 9.9296875 8.02734375 C14.22727253 12.1324996 18.01672946 16.35593787 20.57421875 21.77734375 C20.57421875 22.76734375 20.57421875 23.75734375 20.57421875 24.77734375 C21.60482422 24.2359375 21.60482422 24.2359375 22.65625 23.68359375 C23.55730469 23.21953125 24.45835937 22.75546875 25.38671875 22.27734375 C26.28003906 21.81328125 27.17335938 21.34921875 28.09375 20.87109375 C30.57421875 19.77734375 30.57421875 19.77734375 33.57421875 19.77734375 C32.38200321 23.35399036 31.41765096 23.66466069 28.38671875 25.71484375 C26.12353678 27.48079614 26.12353678 27.48079614 24.57421875 29.77734375 C24.47847434 32.93235004 25.09113164 35.53440344 25.8359375 38.59765625 C27.9437205 47.67562112 26.45645916 56.06199774 23.57421875 64.77734375 C22.8265625 64.57238281 22.07890625 64.36742188 21.30859375 64.15625 C20.32375 63.88683594 19.33890625 63.61742188 18.32421875 63.33984375 C17.3496875 63.07300781 16.37515625 62.80617188 15.37109375 62.53125 C14.448125 62.28246094 13.52515625 62.03367187 12.57421875 61.77734375 C11.95933594 61.60332031 11.34445313 61.42929688 10.7109375 61.25 C8.31023934 60.71894977 6.0461395 60.56577939 3.58984375 60.4609375 C2.65527344 60.41904297 1.72070312 60.37714844 0.7578125 60.33398438 C-0.21027344 60.29466797 -1.17835938 60.25535156 -2.17578125 60.21484375 C-3.65111328 60.15006836 -3.65111328 60.15006836 -5.15625 60.08398438 C-7.57927052 59.97812426 -10.00250797 59.87725063 -12.42578125 59.77734375 C-12.42578125 53.50734375 -12.42578125 47.23734375 -12.42578125 40.77734375 C-8.79578125 40.44734375 -5.16578125 40.11734375 -1.42578125 39.77734375 C-11.66480598 34.2459166 -21.9953017 28.93806883 -32.42578125 23.77734375 C-33.15410156 23.35195313 -33.88242188 22.9265625 -34.6328125 22.48828125 C-37.07118532 21.5214319 -37.9799239 21.82275554 -40.42578125 22.77734375 C-42.70684264 23.92647141 -44.94140986 25.1064754 -47.17578125 26.33984375 C-55.16487341 30.68024875 -63.27645071 34.74789671 -71.42578125 38.77734375 C-72.41578125 39.27234375 -72.41578125 39.27234375 -73.42578125 39.77734375 C-69.79578125 40.10734375 -66.16578125 40.43734375 -62.42578125 40.77734375 C-62.42578125 50.01734375 -62.42578125 59.25734375 -62.42578125 68.77734375 C-68.36578125 68.77734375 -74.30578125 68.77734375 -80.42578125 68.77734375 C-84.16438996 61.30012632 -84.60728243 56.11724353 -84.61328125 47.96484375 C-84.62552734 47.10052734 -84.63777344 46.23621094 -84.65039062 45.34570312 C-84.68410268 30.45621225 -78.33473682 17.72086984 -68.11328125 7.08984375 C-48.41086124 -11.79027158 -23.06708343 -12.11695044 0 0 Z " fill="#E4B02D" transform="translate(152.42578125,18.22265625)"/>
<path d="M0 0 C1.18529297 0.02707031 1.18529297 0.02707031 2.39453125 0.0546875 C2.98621094 0.07789063 3.57789062 0.10109375 4.1875 0.125 C4.6825 1.115 4.6825 1.115 5.1875 2.125 C3.970625 2.5375 2.75375 2.95 1.5 3.375 C-3.36573807 5.22329273 -6.68444385 7.24673175 -9.421875 11.8046875 C-12.14145738 18.29807239 -11.83832275 26.07386948 -10.12109375 32.85546875 C-9.19069736 35.11722733 -8.14097016 37.07380865 -6.8125 39.125 C-6.42320313 39.74761719 -6.03390625 40.37023437 -5.6328125 41.01171875 C0.17802386 48.9371494 9.72557752 52.19816415 19.07592773 53.75219727 C24.83623839 54.44234982 30.57968218 54.46410844 36.375 54.4375 C37.66003418 54.43186035 38.94506836 54.4262207 40.26904297 54.42041016 C60.89373365 54.15689418 79.54219493 47.89802375 98.57421875 40.421875 C113.06267468 35.22169406 131.04617159 34.52923115 145.1875 41.125 C150.0042306 43.58379583 154.6766667 46.27407247 159.32763672 49.03076172 C161.9823244 50.59262969 164.67380207 52.08283976 167.375 53.5625 C168.19355469 54.01496094 169.01210937 54.46742187 169.85546875 54.93359375 C175.04676574 57.58576391 179.43764106 58.54026858 185.1875 59.125 C183.1875 61.125 183.1875 61.125 179.515625 61.41796875 C175.23931046 61.30518047 171.87953123 60.13120822 167.9375 58.4375 C167.29055176 58.16494385 166.64360352 57.8923877 165.97705078 57.61157227 C164.04194362 56.79444768 162.11482509 55.9602757 160.1875 55.125 C158.14712884 54.26774332 156.10556185 53.41332416 154.0625 52.5625 C153.11117187 52.16417969 152.15984375 51.76585937 151.1796875 51.35546875 C129.49151701 42.43670412 118.11221156 44.28390589 96.82641602 53.15527344 C91.79619779 55.27336552 86.78383618 57.43197433 81.77734375 59.60546875 C63.29105579 67.5212047 44.59457075 71.47357542 24.5 71.5 C23.33073975 71.50161133 22.16147949 71.50322266 20.95678711 71.50488281 C6.73038014 71.32132943 -5.36045961 68.33396968 -15.8125 58.125 C-23.88118698 48.71491922 -28.35272753 38.73046938 -28.1328125 26.1953125 C-27.43392788 19.49624772 -24.74147965 12.79455967 -19.8125 8.125 C-7.48847005 -0.22353642 -7.48847005 -0.22353642 0 0 Z " fill="#1B5284" transform="translate(41.8125,47.875)"/>
<path d="M0 0 C4.45615021 0.44805898 7.97292139 2.41324775 11.8125 4.5625 C18.06033633 7.99098061 24.37882388 11.22103562 30.80786133 14.29711914 C34.16234644 15.9358899 36.31857773 17.31857773 39 20 C35.04 20 31.08 20 27 20 C27 26.27 27 32.54 27 39 C33.93 39 40.86 39 48 39 C48 39.66 48 40.32 48 41 C47.39454346 40.99363525 46.78908691 40.98727051 46.1652832 40.98071289 C30.19774994 40.93150861 15.84769882 43.27854263 0.44140625 47.40625 C-9.82347462 50.0725207 -19.80590762 50.18197801 -30.375 50.1875 C-31.63183594 50.19974609 -32.88867188 50.21199219 -34.18359375 50.22460938 C-35.38886719 50.22654297 -36.59414062 50.22847656 -37.8359375 50.23046875 C-39.46861572 50.23663208 -39.46861572 50.23663208 -41.13427734 50.24291992 C-43.95976143 50.00341092 -45.60339372 49.46282122 -48 48 C-48 47.67 -48 47.34 -48 47 C-39.75 47.33 -31.5 47.66 -23 48 C-23 38.76 -23 29.52 -23 20 C-26.96 20 -30.92 20 -35 20 C-31.89381193 16.89381193 -28.82083026 15.18165349 -24.9609375 13.2421875 C-24.27947662 12.8936673 -23.59801575 12.54514709 -22.89590454 12.18606567 C-20.72500832 11.07690424 -18.55024501 9.97560474 -16.375 8.875 C-14.19332319 7.76592497 -12.01249542 6.65522453 -9.83267212 5.54251099 C-8.47727672 4.85118441 -7.12067592 4.16221521 -5.76278687 3.47579956 C-2.67898457 2.03574873 -2.67898457 2.03574873 0 0 Z " fill="#FEFDFD" transform="translate(113,39)"/>
<path d="M0 0 C-2 2 -2 2 -4.9375 3.25 C-8.76538491 5.4373628 -9.61237964 6.83713893 -11 11 C-11.72969481 16.65513477 -11.3806828 21.24591481 -8 26 C4.75593853 38.21695521 22.21909486 36.27763544 38.58496094 36.10864258 C46.57271136 35.85452841 53.9384633 34.55370327 61.6484375 32.53125 C78.83584677 28.06239051 95.47919478 25.40437896 113 30 C113 30.33 113 30.66 113 31 C111.97003906 31.01417969 110.94007813 31.02835938 109.87890625 31.04296875 C95.13509583 31.4538303 82.53752345 35.56987698 68.88305664 40.82983398 C46.26911374 49.4346948 17.18089299 54.15389502 -6 45 C-13.47591769 41.09279334 -18.99011184 36.15704399 -22.09765625 28.18359375 C-23.80069902 22.17502294 -24.22699276 15.47830536 -22.125 9.51953125 C-16.88794945 0.33746564 -9.96896964 -0.64897452 0 0 Z " fill="#40ABE0" transform="translate(55,52)"/>
<path d="M0 0 C1.42814838 1.15119438 2.77861743 2.39764265 4.109375 3.66015625 C4.109375 3.99015625 4.109375 4.32015625 4.109375 4.66015625 C3.30113281 4.67433594 2.49289063 4.68851563 1.66015625 4.703125 C-5.03953331 4.99866958 -5.03953331 4.99866958 -11.140625 7.53515625 C-13.78233778 12.2525005 -13.9267446 16.38880323 -12.890625 21.66015625 C-10.55974445 26.60307415 -6.86423384 28.92825307 -1.953125 31.03515625 C2.07096848 32.45972187 5.86328996 33.29093146 10.109375 33.66015625 C8.609375 35.28515625 8.609375 35.28515625 6.109375 36.66015625 C-2.10078317 35.42863252 -9.52150916 32.1346783 -14.890625 25.66015625 C-17.43326661 21.30134207 -17.56389491 16.57502662 -16.890625 11.66015625 C-15.4631779 7.44269892 -13.51868619 5.03457734 -9.640625 2.72265625 C-8.733125 2.37203125 -7.825625 2.02140625 -6.890625 1.66015625 C-12.98457387 1.02536991 -17.18920378 1.56670111 -22.2265625 5.19921875 C-25.75115209 8.29357675 -26.71637061 10.9904022 -27.19921875 15.6171875 C-27.53566673 24.37503032 -25.77721208 30.12409084 -21.140625 37.41015625 C-10.9804756 47.57030565 3.1941663 49.03679877 16.921875 49.09765625 C39.06402277 48.86136214 58.11597834 43.02109068 78.66137695 35.33911133 C79.5555835 35.0067749 80.44979004 34.67443848 81.37109375 34.33203125 C82.16475342 34.03393555 82.95841309 33.73583984 83.77612305 33.42871094 C88.60931291 31.83669653 93.35948945 31.42884035 98.421875 31.09765625 C99.67613281 31.01386719 100.93039063 30.93007812 102.22265625 30.84375 C103.17527344 30.78316406 104.12789062 30.72257812 105.109375 30.66015625 C102.469375 30.33015625 99.829375 30.00015625 97.109375 29.66015625 C100.32940803 27.37929952 103.05072333 27.51879413 106.87109375 28.1015625 C110.84099661 29.09230615 114.45794941 30.84289583 118.109375 32.66015625 C118.109375 32.99015625 118.109375 33.32015625 118.109375 33.66015625 C117.06148804 33.66631958 117.06148804 33.66631958 115.99243164 33.67260742 C97.23544536 33.86515265 82.84262558 36.51317198 65.48828125 43.3984375 C61.54719342 44.8700807 57.57581905 46.14112755 53.546875 47.34765625 C52.886875 47.55003906 52.226875 47.75242188 51.546875 47.9609375 C40.69018291 51.13540887 30.01079008 52.0024565 18.734375 51.97265625 C16.91679687 51.99682617 16.91679687 51.99682617 15.0625 52.02148438 C1.41483023 52.02875925 -11.57960943 50.26284663 -21.953125 40.7734375 C-29.35872825 32.92041239 -30.48242005 25.85309618 -30.23828125 15.1640625 C-29.64293345 9.16375937 -27.4300919 5.90199559 -23.015625 1.84765625 C-19.97603171 -0.28005906 -17.46023929 -1.40494477 -13.890625 -2.33984375 C-23.33591204 -3.28437245 -30.58857516 0.16474075 -37.890625 6.09765625 C-43.26195012 12.97966656 -44.95560534 18.78104481 -45.453125 27.41015625 C-45.49630859 28.10753906 -45.53949219 28.80492187 -45.58398438 29.5234375 C-45.68952096 31.23547547 -45.7905241 32.94779186 -45.890625 34.66015625 C-49.57717934 29.13032473 -48.57437589 20.61347959 -47.4609375 14.17578125 C-44.55727827 5.21387004 -37.56669346 0.00989425 -29.5390625 -4.2109375 C-19.67898039 -8.41383386 -8.56792441 -6.07189684 0 0 Z " fill="#E3EDF3" transform="translate(59.890625,51.33984375)"/>
<path d="M0 0 C0.33 0 0.66 0 1 0 C1.33 4.29 1.66 8.58 2 13 C2.66 13 3.32 13 4 13 C4.14695312 13.61746094 4.29390625 14.23492187 4.4453125 14.87109375 C7.69036122 27.12395011 15.26472734 36.31609616 26 43 C32.73883008 46.72095632 38.94134011 47.76579659 46.5625 48.25 C47.57119141 48.32734375 48.57988281 48.4046875 49.61914062 48.484375 C52.07874593 48.67088536 54.53839952 48.84244732 57 49 C57 49.33 57 49.66 57 50 C60.3 50.33 63.6 50.66 67 51 C67 51.33 67 51.66 67 52 C37.1848612 53.04846571 37.1848612 53.04846571 26 47 C25.17113281 46.55398437 24.34226562 46.10796875 23.48828125 45.6484375 C12.39113227 38.90348107 5.53817011 29.52377345 0.625 17.6875 C-0.37053861 11.81382221 -0.14833651 5.94170121 0 0 Z " fill="#D4D8DB" transform="translate(11,70)"/>
<path d="M0 0 C-1.13425477 3.40276432 -2.08405449 4.1105078 -4.8125 6.3125 C-9.43064653 10.2284239 -12.46285638 14.50285548 -15 20 C-15.8971875 19.13375 -15.8971875 19.13375 -16.8125 18.25 C-23.33169666 13.64821412 -31.29030181 11.74559204 -39 10 C-39 9.67 -39 9.34 -39 9 C-35.72918529 8.97097571 -32.4584037 8.95319316 -29.1875 8.9375 C-28.25873047 8.92912109 -27.32996094 8.92074219 -26.37304688 8.91210938 C-25.48037109 8.90888672 -24.58769531 8.90566406 -23.66796875 8.90234375 C-22.84578857 8.89710693 -22.0236084 8.89187012 -21.17651367 8.88647461 C-19 9 -19 9 -16 10 C-16 9.34 -16 8.68 -16 8 C-11.71517328 3.98297495 -6.01741692 0 0 0 Z " fill="#B72435" transform="translate(186,38)"/>
<path d="M0 0 C0 0.66 0 1.32 0 2 C-23.74735789 12.07788551 -45.65967842 13.46833122 -71 13 C-71 12.67 -71 12.34 -71 12 C-69.89265503 11.94054199 -69.89265503 11.94054199 -68.76293945 11.87988281 C-48.39009524 10.7365653 -28.95495294 8.9294603 -9.68115234 1.93066406 C-6.20082495 0.6678976 -3.75592503 0 0 0 Z " fill="#DADEE1" transform="translate(124,108)"/>
<path d="M0 0 C0.86496094 0.01804687 1.72992188 0.03609375 2.62109375 0.0546875 C3.26175781 0.07789062 3.90242188 0.10109375 4.5625 0.125 C4.5625 0.455 4.5625 0.785 4.5625 1.125 C3.1703125 1.310625 3.1703125 1.310625 1.75 1.5 C-1.57675235 1.94033082 -1.57675235 1.94033082 -4.4375 4.125 C-6.07012533 4.60946686 -7.718792 5.04108017 -9.375 5.4375 C-18.08272978 7.71508322 -26.1393467 11.52998956 -34.32421875 15.2109375 C-37.64863443 16.64885482 -41.03398138 17.88735687 -44.4375 19.125 C-44.4375 18.465 -44.4375 17.805 -44.4375 17.125 C-45.0975 16.795 -45.7575 16.465 -46.4375 16.125 C-45.74269531 15.86847656 -45.04789062 15.61195312 -44.33203125 15.34765625 C-36.05940422 12.23362554 -27.95128369 8.8110207 -19.86254883 5.24829102 C-13.34585922 2.40865375 -7.23417729 -0.19819664 0 0 Z " fill="#D3D7DB" transform="translate(168.4375,90.875)"/>
<path d="M0 0 C0.99 0.33 1.98 0.66 3 1 C2.2575 1.8971875 2.2575 1.8971875 1.5 2.8125 C-0.73333297 7.55833256 -0.87927146 11.84998145 0 17 C2.31369591 21.94495792 6.03551177 24.27200963 10.9375 26.375 C14.96159348 27.79956562 18.75391496 28.63077521 23 29 C21.5 30.625 21.5 30.625 19 32 C10.78984183 30.76847627 3.36911584 27.47452205 -2 21 C-4.52736917 16.66736714 -4.71631801 11.88928687 -4 7 C-2.90183058 4.38826665 -1.60703745 2.36033625 0 0 Z " fill="#E1EAEF" transform="translate(47,56)"/>
<path d="M0 0 C-0.79664063 0.63615234 -0.79664063 0.63615234 -1.609375 1.28515625 C-6.28170538 5.16455465 -9.32694461 8.54251191 -12 14 C-12.71285156 13.66226563 -13.42570312 13.32453125 -14.16015625 12.9765625 C-19.38656437 10.54273046 -24.39584643 8.3699042 -30 7 C-30 6.67 -30 6.34 -30 6 C-28.81921875 6.04640625 -27.6384375 6.0928125 -26.421875 6.140625 C-24.86460866 6.17814949 -23.30731492 6.21454893 -21.75 6.25 C-20.58404297 6.30027344 -20.58404297 6.30027344 -19.39453125 6.3515625 C-14.6360981 6.48625442 -14.6360981 6.48625442 -10.64453125 4.09765625 C-10.10183594 3.40542969 -9.55914062 2.71320312 -9 2 C-3.59558824 -1.19852941 -3.59558824 -1.19852941 0 0 Z " fill="#BB2935" transform="translate(163,22)"/>
<path d="M0 0 C0.33 0.99 0.66 1.98 1 3 C-4.95666413 6.09343669 -11.15089107 8.67996569 -18 8 C-19.6640625 6.62890625 -19.6640625 6.62890625 -21 5 C-21.66 4.34 -22.32 3.68 -23 3 C-20.29273634 2.4935186 -17.58442876 1.994649 -14.875 1.5 C-13.73417969 1.28537109 -13.73417969 1.28537109 -12.5703125 1.06640625 C-8.31957086 0.29687544 -4.34140803 -0.16644376 0 0 Z " fill="#EAEAEC" transform="translate(244,102)"/>
<path d="M0 0 C0.66 0.33 1.32 0.66 2 1 C1.57847656 1.67546875 1.15695313 2.3509375 0.72265625 3.046875 C0.17480469 3.93890625 -0.37304688 4.8309375 -0.9375 5.75 C-1.48277344 6.63171875 -2.02804688 7.5134375 -2.58984375 8.421875 C-5.12580146 13.05825197 -5.26212794 17.54026813 -5.5625 22.75 C-5.60568359 23.44738281 -5.64886719 24.14476563 -5.69335938 24.86328125 C-5.79889596 26.57531922 -5.8998991 28.28763561 -6 30 C-9.69335248 24.45997128 -8.72526932 15.80766392 -7.5 9.375 C-6.03037248 4.96611745 -3.86056807 2.50415226 0 0 Z " fill="#F1F2F4" transform="translate(20,56)"/>
<path d="M0 0 C9.03056332 1.26744748 16.17817999 5.56866587 24 10 C22.421875 11.203125 22.421875 11.203125 20 12 C17.56825385 11.02969735 15.50551736 10.03227097 13.25 8.75 C8.21718475 6.04491094 3.6415209 4.01547376 -2 3 C-1.34 2.01 -0.68 1.02 0 0 Z " fill="#DCDFE3" transform="translate(176,83)"/>
<path d="M0 0 C1.33839185 0.63528397 2.67366937 1.2774049 4 1.9375 C4 2.2675 4 2.5975 4 2.9375 C-3.26 2.9375 -10.52 2.9375 -18 2.9375 C-18 2.2775 -18 1.6175 -18 0.9375 C-13.545 0.4425 -13.545 0.4425 -9 -0.0625 C-11.64 -0.3925 -14.28 -0.7225 -17 -1.0625 C-11.63387541 -4.86350492 -5.43974561 -2.40719451 0 0 Z " fill="#F1F4F5" transform="translate(174,82.0625)"/>
<path d="M0 0 C-5.51767858 3.67845239 -10.94469122 4.24942165 -17.46484375 4.1953125 C-18.48210289 4.19106766 -18.48210289 4.19106766 -19.51991272 4.18673706 C-21.65929766 4.17565416 -23.7982443 4.1505736 -25.9375 4.125 C-27.39908244 4.11495476 -28.86067153 4.10583163 -30.32226562 4.09765625 C-33.88164979 4.07575425 -37.44078203 4.04130866 -41 4 C-41 3.67 -41 3.34 -41 3 C-40.18321777 2.94465088 -39.36643555 2.88930176 -38.52490234 2.83227539 C-34.80805547 2.57869809 -31.09153242 2.32064338 -27.375 2.0625 C-26.08980469 1.97548828 -24.80460937 1.88847656 -23.48046875 1.79882812 C-21.61455078 1.66831055 -21.61455078 1.66831055 -19.7109375 1.53515625 C-18.56931152 1.456604 -17.42768555 1.37805176 -16.25146484 1.29711914 C-1.6873854 -0.03374771 -1.6873854 -0.03374771 0 0 Z " fill="#EDEFF1" transform="translate(94,117)"/>
<path d="M0 0 C0 0.66 0 1.32 0 2 C-4 4 -8 6 -12 8 C-13.62035156 8.87205078 -13.62035156 8.87205078 -15.2734375 9.76171875 C-16.17320313 10.17035156 -17.07296875 10.57898437 -18 11 C-18.66 10.67 -19.32 10.34 -20 10 C-6.96456086 -2.34206471 -6.96456086 -2.34206471 0 0 Z " fill="#E3E5E7" transform="translate(37,47)"/>
<path d="M0 0 C0.94101562 0.10957031 1.88203125 0.21914063 2.8515625 0.33203125 C3.78742187 0.42871094 4.72328125 0.52539062 5.6875 0.625 C8.52491893 1.15353882 10.88746627 1.87067751 13.4765625 3.14453125 C14.2890625 5.26953125 14.2890625 5.26953125 14.4765625 7.14453125 C8.32421875 6.55859375 8.32421875 6.55859375 6.4765625 6.14453125 C6.1465625 5.48453125 5.8165625 4.82453125 5.4765625 4.14453125 C2.89050918 3.67620475 2.89050918 3.67620475 -0.0859375 3.51953125 C-1.60380859 3.40738281 -1.60380859 3.40738281 -3.15234375 3.29296875 C-4.32603516 3.21949219 -4.32603516 3.21949219 -5.5234375 3.14453125 C-3.73334514 0.81981399 -2.99046809 0.17128068 0 0 Z " fill="#F1F2F2" transform="translate(40.5234375,44.85546875)"/>
<path d="M0 0 C2.375 0.3125 2.375 0.3125 5 1 C7 4 7 4 6.625 6.1875 C6.41875 6.785625 6.2125 7.38375 6 8 C6 7.01 6 6.02 6 5 C3.64828869 5.59861742 1.3140622 6.26924352 -1 7 C-1.33 7.66 -1.66 8.32 -2 9 C-2.6875 6.75 -2.6875 6.75 -3 4 C-1.5625 1.6875 -1.5625 1.6875 0 0 Z " fill="#878F98" transform="translate(227,125)"/>
<path d="M0 0 C2.7070982 0.62287215 5.18526004 1.4401901 7.75 2.5 C11.84032013 4.07615719 15.64317785 4.61099802 20 5 C18 7 18 7 14.5 7.375 C9.21938239 7.27792982 4.73520172 5.17353521 0 3 C0 2.01 0 1.02 0 0 Z " fill="#31628F" transform="translate(207,102)"/>
<path d="M0 0 C7.23589973 0.60299164 13.99370876 2.1150587 21 4 C16.84326267 6.36741332 13.55280343 6.13621447 9 5 C5.91903863 3.82015898 2.95275181 2.46954083 0 1 C0 0.67 0 0.34 0 0 Z " fill="#D7E3ED" transform="translate(44,96)"/>
<path d="M0 0 C4.57756359 0.31210661 8.00574046 1.81266739 12 4 C11.67 4.99 11.34 5.98 11 7 C6.52761347 5.58192622 2.28853694 3.88695626 -2 2 C-1.34 1.34 -0.68 0.68 0 0 Z " fill="#D3D6DA" transform="translate(195,100)"/>
<path d="M0 0 C4.84659077 0.59104765 8.60748167 1.97944157 13 4 C13 4.66 13 5.32 13 6 C7.88523181 6.63934602 4.32745622 4.40533547 0 2 C0 1.34 0 0.68 0 0 Z " fill="#E5E6E7" transform="translate(182,95)"/>
<path d="M0 0 C0 0.33 0 0.66 0 1 C-0.65226562 1.03738281 -1.30453125 1.07476562 -1.9765625 1.11328125 C-7.31622957 1.51493762 -11.3204092 2.16761609 -16 5 C-16.66 4.34 -17.32 3.68 -18 3 C-11.83177971 -1.52336155 -7.40834118 -1.23249076 0 0 Z " fill="#D3E4F0" transform="translate(54,51)"/>
<path d="M0 0 C0 0.33 0 0.66 0 1 C-1.3921875 1.185625 -1.3921875 1.185625 -2.8125 1.375 C-6.13925235 1.81533082 -6.13925235 1.81533082 -9 4 C-10.9896995 4.39013716 -12.99019869 4.73202649 -15 5 C-15 4.34 -15 3.68 -15 3 C-15.66 2.67 -16.32 2.34 -17 2 C-11.21642935 -0.01167675 -6.09781001 -0.22084624 0 0 Z " fill="#C3CBD4" transform="translate(173,91)"/>
<path d="M0 0 C6.93 0.495 6.93 0.495 14 1 C14 1.66 14 2.32 14 3 C12.41705218 3.05437607 10.83355744 3.09296271 9.25 3.125 C8.36828125 3.14820312 7.4865625 3.17140625 6.578125 3.1953125 C3.8864142 2.99139502 2.30095026 2.36551721 0 1 C0 0.67 0 0.34 0 0 Z " fill="#EEF5F9" transform="translate(65,86)"/>
<path d="M0 0 C0.99 0.33 1.98 0.66 3 1 C2.2884375 1.928125 2.2884375 1.928125 1.5625 2.875 C-0.58052838 7.16105676 -0.73342564 11.26600709 -1 16 C-1.33 16 -1.66 16 -2 16 C-3.45295405 6.00437637 -3.45295405 6.00437637 -1.5625 1.8125 C-1.046875 1.214375 -0.53125 0.61625 0 0 Z " fill="#DBE0E2" transform="translate(47,56)"/>
<path d="M0 0 C1.48117801 0.28127421 2.95993249 0.57533732 4.4375 0.875 C5.67306641 1.11863281 5.67306641 1.11863281 6.93359375 1.3671875 C7.61550781 1.57601562 8.29742187 1.78484375 9 2 C9.33 2.66 9.66 3.32 10 4 C5.47907032 5.45606519 2.48351204 4.27032841 -2 3 C-1.34 2.01 -0.68 1.02 0 0 Z " fill="#CED1D5" transform="translate(176,83)"/>
<path d="M0 0 C2.97851562 0.53710938 2.97851562 0.53710938 5.95703125 1.07421875 C5.95703125 1.73421875 5.95703125 2.39421875 5.95703125 3.07421875 C2.32703125 3.07421875 -1.30296875 3.07421875 -5.04296875 3.07421875 C-2.04296875 0.07421875 -2.04296875 0.07421875 0 0 Z " fill="#ECECEC" transform="translate(40.04296875,44.92578125)"/>
<path d="M0 0 C-0.33 0.99 -0.66 1.98 -1 3 C-4.5625 4.1875 -4.5625 4.1875 -8 5 C-8.33 4.01 -8.66 3.02 -9 2 C-5.62902617 0.50178941 -3.79557881 0 0 0 Z " fill="#D5D7DA" transform="translate(158,94)"/>
<path d="M0 0 C1.65 0.33 3.3 0.66 5 1 C5.33 2.98 5.66 4.96 6 7 C5.67 6.01 5.34 5.02 5 4 C1.99152582 2.77479736 1.99152582 2.77479736 -1 2 C-0.67 1.34 -0.34 0.68 0 0 Z " fill="#88939F" transform="translate(211,125)"/>
<path d="M0 0 C3.63 0 7.26 0 11 0 C11 0.33 11 0.66 11 1 C10.2575 1.144375 9.515 1.28875 8.75 1.4375 C6.47972261 1.90187492 4.24240521 2.41863569 2 3 C1.34 2.01 0.68 1.02 0 0 Z " fill="#D4D8DC" transform="translate(217,104)"/>
<path d="M0 0 C1.65 1.65 3.3 3.3 5 5 C4.01 5.66 3.02 6.32 2 7 C0.4375 5.75 0.4375 5.75 -1 4 C-0.6875 1.8125 -0.6875 1.8125 0 0 Z " fill="#D9DFE3" transform="translate(46,73)"/>
<path d="M0 0 C-0.33 0.99 -0.66 1.98 -1 3 C-2.98 3.33 -4.96 3.66 -7 4 C-7 3.34 -7 2.68 -7 2 C-2.25 0 -2.25 0 0 0 Z " fill="#E6E9EC" transform="translate(142,100)"/>
<path d="M0 0 C5.75 0.75 5.75 0.75 8 3 C6.25 3.75 6.25 3.75 4 4 C1.75 2.0625 1.75 2.0625 0 0 Z " fill="#EAECEE" transform="translate(197,94)"/>
<path d="M0 0 C2.875 -0.125 2.875 -0.125 6 0 C6.66 0.66 7.32 1.32 8 2 C7.67 2.66 7.34 3.32 7 4 C5.68 3.67 4.36 3.34 3 3 C3 2.34 3 1.68 3 1 C2.01 0.67 1.02 0.34 0 0 Z " fill="#D7D9DD" transform="translate(175,93)"/>
<path d="M0 0 C0.99 0.33 1.98 0.66 3 1 C2.67 2.32 2.34 3.64 2 5 C1.34 3.35 0.68 1.7 0 0 Z " fill="#8DA8C2" transform="translate(197,126)"/>
<path d="M0 0 C1.2065625 0.0309375 1.2065625 0.0309375 2.4375 0.0625 C0.5625 1.125 0.5625 1.125 -1.5625 2.0625 C-2.2225 1.7325 -2.8825 1.4025 -3.5625 1.0625 C-2.5625 0.0625 -2.5625 0.0625 0 0 Z " fill="#8EA9C2" transform="translate(195.5625,122.9375)"/>
<path d="M0 0 C2.475 0.495 2.475 0.495 5 1 C3.68 1.33 2.36 1.66 1 2 C0.67 1.34 0.34 0.68 0 0 Z " fill="#90ABC4" transform="translate(226,134)"/>
<path d="M0 0 C0.33 0 0.66 0 1 0 C1 1.98 1 3.96 1 6 C0.67 6 0.34 6 0 6 C0 4.02 0 2.04 0 0 Z " fill="#8EA9C2" transform="translate(208,128)"/>
<path d="M0 0 C0.33 0.99 0.66 1.98 1 3 C0.01 2.67 -0.98 2.34 -2 2 C-1.34 2 -0.68 2 0 2 C0 1.34 0 0.68 0 0 Z " fill="#90ABC3" transform="translate(233,134)"/>
<path d="M0 0 C0.99 0.495 0.99 0.495 2 1 C1.67 1.99 1.34 2.98 1 4 C0.67 2.68 0.34 1.36 0 0 Z " fill="#89A5BF" transform="translate(218,129)"/>
<path d="M0 0 C0.33 0 0.66 0 1 0 C1 1.65 1 3.3 1 5 C0.67 5 0.34 5 0 5 C0 3.35 0 1.7 0 0 Z " fill="#8EA9C2" transform="translate(205,128)"/>
<path d="M0 0 C1.98 0.99 1.98 0.99 4 2 C2.68 1.67 1.36 1.34 0 1 C0 0.67 0 0.34 0 0 Z " fill="#FCFDFD" transform="translate(205,69)"/>
<path d="M0 0 C0.66 0 1.32 0 2 0 C2 0.66 2 1.32 2 2 C1.34 2 0.68 2 0 2 C0 1.34 0 0.68 0 0 Z " fill="#8DA9C2" transform="translate(149,125)"/>
<path d="M0 0 C4 1 4 1 4 1 Z " fill="#FCFDFD" transform="translate(209,71)"/>
<path d="M0 0 C0.66 0.66 1.32 1.32 2 2 C1.34 2 0.68 2 0 2 C0 1.34 0 0.68 0 0 Z " fill="#8FAAC2" transform="translate(224,135)"/>
<path d="" fill="#90ABC3" transform="translate(0,0)"/>
<path d="" fill="#8EAAC2" transform="translate(0,0)"/>
<path d="" fill="#8EA9C3" transform="translate(0,0)"/>
<path d="M0 0 C3 1 3 1 3 1 Z " fill="#8EA9C2" transform="translate(194,125)"/>
<path d="" fill="#8EA9C2" transform="translate(0,0)"/>
<path d="" fill="#8CA8C1" transform="translate(0,0)"/>
<path d="M0 0 C2 1 2 1 2 1 Z " fill="#8EA9C2" transform="translate(212,135)"/>
<path d="M0 0 C2 1 2 1 2 1 Z " fill="#8EA9C2" transform="translate(214,134)"/>
<path d="" fill="#8DA9C2" transform="translate(0,0)"/>
<path d="" fill="#8BA7C1" transform="translate(0,0)"/>
<path d="" fill="#8BA7C1" transform="translate(0,0)"/>
<path d="" fill="#8FAAC3" transform="translate(0,0)"/>
<path d="M0 0 C2 1 2 1 2 1 Z " fill="#8CA8C1" transform="translate(192,126)"/>
<path d="M0 0 C2 1 2 1 2 1 Z " fill="#8FAAC3" transform="translate(198,124)"/>
<path d="" fill="#8BA7C1" transform="translate(0,0)"/>
<path d="" fill="#90ABC4" transform="translate(0,0)"/>
<path d="" fill="#8EA9C2" transform="translate(0,0)"/>
<path d="" fill="#8DA9C2" transform="translate(0,0)"/>
<path d="" fill="#91ACC4" transform="translate(0,0)"/>
<path d="" fill="#8EAAC3" transform="translate(0,0)"/>
<path d="" fill="#8DA8C2" transform="translate(0,0)"/>
<path d="" fill="#8EA9C2" transform="translate(0,0)"/>
<path d="" fill="#8BA7C1" transform="translate(0,0)"/>
<path d="" fill="#8EA9C2" transform="translate(0,0)"/>
<path d="" fill="#8EA9C3" transform="translate(0,0)"/>
<path d="" fill="#8EA6BD" transform="translate(0,0)"/>
<path d="" fill="#8BA7C1" transform="translate(0,0)"/>
<path d="" fill="#3F6B96" transform="translate(0,0)"/>
<path d="" fill="#8EA9C3" transform="translate(0,0)"/>
<path d="" fill="#8CA8C1" transform="translate(0,0)"/>
<path d="" fill="#8DA9C2" transform="translate(0,0)"/>
</svg>
